<?xml version="1.0" encoding="UTF-8" standalone="no"?>
<svg
   xmlns:dc="http://purl.org/dc/elements/1.1/"
   xmlns:cc="http://creativecommons.org/ns#"
   xmlns:rdf="http://www.w3.org/1999/02/22-rdf-syntax-ns#"
   xmlns:svg="http://www.w3.org/2000/svg"
   xmlns="http://www.w3.org/2000/svg"
   xmlns:sodipodi="http://sodipodi.sourceforge.net/DTD/sodipodi-0.dtd"
   xmlns:inkscape="http://www.inkscape.org/namespaces/inkscape"
   viewBox="0 0 1280 900"
   width="100%"
   height="100%"
   id="svg2"
   version="1.0">
  <metadata
     id="metadata123">
    <rdf:RDF>
      <cc:Work
         rdf:about="">
        <dc:format>image/svg+xml</dc:format>
        <dc:type
           rdf:resource="http://purl.org/dc/dcmitype/StillImage" />
      </cc:Work>
    </rdf:RDF>
  </metadata>
  <defs
     id="defs1">
    <inkscape:perspective
       sodipodi:type="inkscape:persp3d"
       inkscape:vp_x="0 : 450 : 1"
       inkscape:vp_y="0 : 1000 : 0"
       inkscape:vp_z="1280 : 450 : 1"
       inkscape:persp3d-origin="640 : 300 : 1"
       id="perspective152" />
    <linearGradient
       id="srGradient"
       gradientTransform="matrix(0,1,-1,0,0,0)">
      <stop
         offset="0%"
         stop-color="#95DAF7"
         id="stop9" />
      <stop
         offset="100%"
         stop-color="#D0FAFA"
         id="stop11" />
    </linearGradient>
  </defs>
  <g
     inkscape:groupmode="layer"
     id="layer1"
     inkscape:label="bg"
     style="opacity:1;display:inline"
     sodipodi:insensitive="true">
    <g
       id="bg">
      <rect
         x="0"
         y="0"
         width="100%"
         height="100%"
         id="background"
         style="opacity:1;fill:url(#srGradient)" />
    </g>
  </g>
  <g
     inkscape:groupmode="layer"
     id="layer3"
     inkscape:label="Colours"
     style="display:inline">
    <g
       id="col1"
       onclick="parent.setColour(evt)"
       transform="matrix(2.1515037,0,0,2.0623295,-164.81169,0.84830001)">
      <rect
         style="fill:#ffffff;stroke:#000000;stroke-width:0.43004823"
         x="125"
         y="325"
         width="25"
         height="25"
         id="rect35" />
    </g>
    <g
       id="col2"
       onclick="parent.setColour(evt)"
       transform="matrix(2.1515037,0,0,2.0623295,-164.81169,0.84830001)">
      <rect
         style="fill:#b5b2b5;stroke:#000000;stroke-width:0.43004823"
         x="160"
         y="325"
         width="25"
         height="25"
         id="rect38" />
    </g>
    <g
       id="col3"
       onclick="parent.setColour(evt)"
       transform="matrix(2.1515037,0,0,2.0623295,-164.81169,0.84830001)">
      <rect
         style="fill:#6b696b;stroke:#000000;stroke-width:0.43004823"
         x="195"
         y="325"
         width="25"
         height="25"
         id="rect41" />
    </g>
    <g
       id="col4"
       onclick="parent.setColour(evt)"
       transform="matrix(2.1515037,0,0,2.0623295,-164.81169,0.84830001)">
      <rect
         style="fill:#000000;stroke:#000000;stroke-width:0.43004823"
         x="230"
         y="325"
         width="25"
         height="25"
         id="rect44" />
    </g>
    <g
       id="col5"
       onclick="parent.setColour(evt)"
       transform="matrix(2.1515037,0,0,2.0623295,-164.81169,0.84830001)">
      <rect
         style="fill:#efdbb5;stroke:#000000;stroke-width:0.43004823"
         x="265"
         y="325"
         width="25"
         height="25"
         id="rect47" />
    </g>
    <g
       id="col6"
       onclick="parent.setColour(evt)"
       transform="matrix(2.1515037,0,0,2.0623295,-164.81169,0.84830001)">
      <rect
         style="fill:#efdf00;stroke:#000000;stroke-width:0.43004823"
         x="300"
         y="325"
         width="25"
         height="25"
         id="rect50" />
    </g>
    <g
       id="col7"
       onclick="parent.setColour(evt)"
       transform="matrix(2.1515037,0,0,2.0623295,-164.81169,0.84830001)">
      <rect
         style="fill:#ffd718;stroke:#000000;stroke-width:0.43004823"
         x="335"
         y="325"
         width="25"
         height="25"
         id="rect53" />
    </g>
    <g
       id="col8"
       onclick="parent.setColour(evt)"
       transform="matrix(2.1515037,0,0,2.0623295,-164.81169,0.84830001)">
      <rect
         style="fill:#ffa218;stroke:#000000;stroke-width:0.43004823"
         x="370"
         y="325"
         width="25"
         height="25"
         id="rect56" />
    </g>
    <g
       id="col9"
       onclick="parent.setColour(evt)"
       transform="matrix(2.1515037,0,0,2.0623295,-164.81169,0.84830001)">
      <rect
         style="fill:#e74d10;stroke:#000000;stroke-width:0.43004823"
         x="405"
         y="325"
         width="25"
         height="25"
         id="rect59" />
    </g>
    <g
       id="col10"
       onclick="parent.setColour(evt)"
       transform="matrix(2.1515037,0,0,2.0623295,-164.81169,0.84830001)">
      <rect
         style="fill:#ff0000;stroke:#000000;stroke-width:0.43004823"
         x="440"
         y="325"
         width="25"
         height="25"
         id="rect62" />
    </g>
    <g
       id="col11"
       onclick="parent.setColour(evt)"
       transform="matrix(2.1515037,0,0,2.0623295,-164.81169,0.84830001)">
      <rect
         style="fill:#ff1c4a;stroke:#000000;stroke-width:0.43004823"
         x="475"
         y="325"
         width="25"
         height="25"
         id="rect65" />
    </g>
    <g
       id="col12"
       onclick="parent.setColour(evt)"
       transform="matrix(2.1515037,0,0,2.0623295,-164.81169,0.84830001)">
      <rect
         style="fill:#de1842;stroke:#000000;stroke-width:0.43004823"
         x="510"
         y="325"
         width="25"
         height="25"
         id="rect68" />
    </g>
    <g
       id="col13"
       onclick="parent.setColour(evt)"
       transform="matrix(2.1515037,0,0,2.0623295,-164.81169,0.84830001)">
      <rect
         style="fill:#ad2063;stroke:#000000;stroke-width:0.43004823"
         x="545"
         y="325"
         width="25"
         height="25"
         id="rect71" />
    </g>
    <g
       id="col14"
       onclick="parent.setColour(evt)"
       transform="matrix(2.1515037,0,0,2.0623295,-164.81169,0.84830001)">
      <rect
         style="fill:#08a2ef;stroke:#000000;stroke-width:0.43004823"
         x="580"
         y="325"
         width="25"
         height="25"
         id="rect74" />
    </g>
    <g
       id="col15"
       onclick="parent.setColour(evt)"
       transform="matrix(2.1515037,0,0,2.0623295,-164.81169,0.84830001)">
      <rect
         style="fill:#395dc6;stroke:#000000;stroke-width:0.43004823"
         x="125"
         y="360"
         width="25"
         height="25"
         id="rect77" />
    </g>
    <g
       id="col16"
       onclick="parent.setColour(evt)"
       transform="matrix(2.1515037,0,0,2.0623295,-164.81169,0.84830001)">
      <rect
         style="fill:#29108c;stroke:#000000;stroke-width:0.43004823"
         x="160"
         y="360"
         width="25"
         height="25"
         id="rect80" />
    </g>
    <g
       id="col17"
       onclick="parent.setColour(evt)"
       transform="matrix(2.1515037,0,0,2.0623295,-164.81169,0.84830001)">
      <rect
         style="fill:#08a6ce;stroke:#000000;stroke-width:0.43004823"
         x="195"
         y="360"
         width="25"
         height="25"
         id="rect83" />
    </g>
    <g
       id="col18"
       onclick="parent.setColour(evt)"
       transform="matrix(2.1515037,0,0,2.0623295,-164.81169,0.84830001)">
      <rect
         style="fill:#00799c;stroke:#000000;stroke-width:0.43004823"
         x="230"
         y="360"
         width="25"
         height="25"
         id="rect86" />
    </g>
    <g
       id="col19"
       onclick="parent.setColour(evt)"
       transform="matrix(2.1515037,0,0,2.0623295,-164.81169,0.84830001)">
      <rect
         style="fill:#73759c;stroke:#000000;stroke-width:0.43004823"
         x="265"
         y="360"
         width="25"
         height="25"
         id="rect89" />
    </g>
    <g
       id="col20"
       onclick="parent.setColour(evt)"
       transform="matrix(2.1515037,0,0,2.0623295,-164.81169,0.84830001)">
      <rect
         style="fill:#efcfef;stroke:#000000;stroke-width:0.43004823"
         x="300"
         y="360"
         width="25"
         height="25"
         id="rect92" />
    </g>
    <g
       id="col21"
       onclick="parent.setColour(evt)"
       transform="matrix(2.1515037,0,0,2.0623295,-164.81169,0.84830001)">
      <rect
         style="fill:#e7007b;stroke:#000000;stroke-width:0.43004823"
         x="335"
         y="360"
         width="25"
         height="25"
         id="rect95" />
    </g>
    <g
       id="col22"
       onclick="parent.setColour(evt)"
       transform="matrix(2.1515037,0,0,2.0623295,-164.81169,0.84830001)">
      <rect
         style="fill:#c64d9c;stroke:#000000;stroke-width:0.43004823"
         x="370"
         y="360"
         width="25"
         height="25"
         id="rect98" />
    </g>
    <g
       id="col23"
       onclick="parent.setColour(evt)"
       transform="matrix(2.1515037,0,0,2.0623295,-164.81169,0.84830001)">
      <rect
         style="fill:#6b0c5a;stroke:#000000;stroke-width:0.43004823"
         x="405"
         y="360"
         width="25"
         height="25"
         id="rect101" />
    </g>
    <g
       id="col24"
       onclick="parent.setColour(evt)"
       transform="matrix(2.1515037,0,0,2.0623295,-164.81169,0.84830001)">
      <rect
         style="fill:#00964a;stroke:#000000;stroke-width:0.43004823"
         x="440"
         y="360"
         width="25"
         height="25"
         id="rect104" />
    </g>
    <g
       id="col25"
       onclick="parent.setColour(evt)"
       transform="matrix(2.1515037,0,0,2.0623295,-164.81169,0.84830001)">
      <rect
         style="fill:#006d39;stroke:#000000;stroke-width:0.43004823"
         x="475"
         y="360"
         width="25"
         height="25"
         id="rect107" />
    </g>
    <g
       id="col26"
       onclick="parent.setColour(evt)"
       transform="matrix(2.1515037,0,0,2.0623295,-164.81169,0.84830001)">
      <rect
         style="fill:#e5ff00;stroke:#000000;stroke-width:0.43004823"
         x="510"
         y="360"
         width="25"
         height="25"
         id="rect110" />
    </g>
    <g
       id="col27"
       onclick="parent.setColour(evt)"
       transform="matrix(2.1515037,0,0,2.0623295,-164.81169,0.84830001)">
      <rect
         style="fill:#7bfb00;stroke:#000000;stroke-width:0.43004823"
         x="545"
         y="360"
         width="25"
         height="25"
         id="rect113" />
    </g>
    <g
       id="col28"
       onclick="parent.setColour(evt)"
       transform="matrix(2.1515037,0,0,2.0623295,-164.81169,0.84830001)">
      <rect
         style="fill:#ff5100;stroke:#000000;stroke-width:0.43004823"
         x="580"
         y="360"
         width="25"
         height="25"
         id="rect116" />
    </g>
    <g
       id="current"
       transform="matrix(1.2758407,0,0,1.0595202,-206.49408,-79.476615)">
      <text
         style="font-size:45px"
         id="text120"
         y="670"
         x="360">Current Colour:</text>
      <rect
         style="font-size:20px;fill:#000000;stroke:#000000;stroke-width:0.86009675"
         height="60"
         width="150"
         y="630"
         x="700"
         id="currentColour" />
      <text
         style="font-size:45px"
         id="currentPanel"
         y="670"
         x="900" />
    </g>
    <path
       style="fill:none;stroke:#000000;stroke-width:2.00000024;stroke-linecap:round;stroke-linejoin:round;stroke-miterlimit:4;stroke-opacity:1;stroke-dasharray:none"
       d="m 926.39205,799.59771 0,8.84214 217.38495,-0.88421 0,-11.49479"
       id="path3729" />
    <text
       xml:space="preserve"
       style="font-size:59.99458313px;font-style:normal;font-weight:normal;fill:#000000;fill-opacity:1;stroke:none;font-family:Vrinda"
       x="851.79449"
       y="873.01715"
       id="text4616"
       transform="scale(1.0147654,0.98544948)"><tspan
         sodipodi:role="line"
         id="tspan4618"
         x="851.79449"
         y="873.01715">Fluorescent</tspan></text>
  </g>
  <g
     inkscape:groupmode="layer"
     id="layer5"
     inkscape:label="Kite Panels Left"
     style="display:inline">
    <path
       onclick="parent.cngColour(evt)"
       style="fill:#fcf8ff;fill-opacity:1;stroke:#f80000;stroke-width:1;stroke-linecap:round;stroke-linejoin:round;stroke-miterlimit:4;stroke-opacity:1;stroke-dasharray:none"
       d="m 160.44094,451.87023 c 0,0 99.3906,-112.02959 278.38554,-120.72007 3.49536,0 101.36537,-10.48607 90.18023,67.11087 1.39814,0.69907 -71.3053,-70.60622 -167.0781,-27.96286 -10.48607,-6.29164 -202.18674,72.48413 -201.48767,81.57206 z"
       id="LeftLowerLong"
       sodipodi:nodetypes="ccccc" />
    <path
       onclick="parent.cngColour(evt)"
       style="fill:#fcf8ff;fill-opacity:1;stroke:#f80000;stroke-width:1;stroke-linecap:round;stroke-linejoin:round;stroke-miterlimit:4;stroke-opacity:1;stroke-dasharray:none"
       d="m 158.54848,407.92809 c 0,0 117.28894,-68.19887 8.23379,38.75908 -13.28236,10.48607 -71.305299,41.24521 -71.305299,41.24521 0,0 -65.541156,42.62442 -67.175097,43.97125 -9.727958,8.01858 108.525706,-109.1751 108.525706,-109.1751 l 21.7209,-14.80044 z"
       id="LeftTip"
       sodipodi:nodetypes="cccscc" />
    <path
       onclick="parent.cngColour(evt)"
       style="fill:#fcf8ff;fill-opacity:1;stroke:#f80000;stroke-width:1;stroke-linecap:round;stroke-linejoin:round;stroke-miterlimit:4;stroke-opacity:1;stroke-dasharray:none"
       d="M 158.61875,407.80815 290.62332,291.30309 546.48349,94.86399 629.67301,38.938267 629.673,50.82248 c 0,0 -173.36973,118.14309 -301.99889,239.08246 0,0 -35.80772,44.35165 36.35172,46.83779 0.69907,-0.69907 72.90819,-5.38782 72.90819,-5.38782 0,0 -157.10443,2.84347 -269.89733,114.90819 6.22138,-15.59887 87.47479,-84.88324 -8.41794,-38.45495 z"
       id="LeftMiddle4"
       sodipodi:nodetypes="cccccccccc" />
    <path
       onclick="parent.cngColour(evt)"
       style="fill:#fcf8ff;fill-opacity:1;stroke:#f80000;stroke-width:1;stroke-linecap:round;stroke-linejoin:round;stroke-miterlimit:4;stroke-opacity:1;stroke-dasharray:none"
       d="m 534.59928,403.15453 c 0,0 3.32059,-6.29165 6.81594,-34.95358 12.09264,8.23428 38.60916,48.88533 54.00328,104.16166 -0.69907,-1.39814 -59.42108,-69.20808 -60.81922,-69.20808 z"
       id="LeftLowerSmall"
       sodipodi:nodetypes="cccc" />
    <path
       onclick="parent.cngColour(evt)"
       style="fill:#fcf8ff;fill-opacity:1;stroke:#f80000;stroke-width:1;stroke-linecap:round;stroke-linejoin:round;stroke-miterlimit:4;stroke-opacity:1;stroke-dasharray:none"
       d="m 626.17765,52.9197 -123.03659,89.48115 -104.86073,80.39323 -67.80994,63.61551 c 0,0 -46.13872,56.62479 33.55544,50.33314 -0.69907,-0.69907 75.15019,-4.8935 75.15019,-4.8935 l 29.01146,0 c 0,0 70.60623,3.49536 60.81923,65.01366 0.69907,1.39814 5.76734,4.01965 5.76734,4.01965 0,0 6.46641,-17.30202 6.46641,-32.6816 0.5243,0.52432 0,-0.34952 0,-0.34952 0,0 10.13654,-22.89459 -52.7799,-52.7799 1.39815,3.49536 -44.91535,-17.47679 -27.96286,-62.91644 0,-0.69907 38.44893,-58.02294 38.44893,-58.02294 0,0 46.13872,-66.41179 132.12452,-137.71709 0.69907,1.39815 0,-7.34025 0,-7.34025 l -4.8935,3.8449 z"
       id="LeftMiddle3"
       sodipodi:nodetypes="ccccccccccccccccc" />
    <path
       onclick="parent.cngColour(evt)"
       style="fill:#fcf8ff;fill-opacity:1;stroke:#f80000;stroke-width:1;stroke-linecap:round;stroke-linejoin:round;stroke-miterlimit:4;stroke-opacity:1;stroke-dasharray:none"
       d="m 631.07115,57.11413 0,49.63407 c 0,0 -154.36031,144.43279 -138.45129,213.01207 0.69907,-1.39815 -68.35394,-9.58225 -22.33516,-85.08198 -1.39814,1.39815 72.00437,-109.05515 160.78645,-177.56416 z"
       id="LeftMiddle2"
       sodipodi:nodetypes="ccccc" />
    <path
       onclick="parent.cngColour(evt)"
       style="fill:#fcf8ff;fill-opacity:1;stroke:#f80000;stroke-width:1;stroke-linecap:round;stroke-linejoin:round;stroke-miterlimit:4;stroke-opacity:1;stroke-dasharray:none"
       d="m 631.07115,104.27661 0.61425,331.88935 c 0,0 -172.21147,-94.15535 -0.61425,-331.88935 z"
       id="LeftCenter"
       sodipodi:nodetypes="ccc" />
    <path
       onclick="parent.cngColour(evt)"
       style="fill:#fcf8ff;fill-opacity:1;stroke:#f80000;stroke-width:1;stroke-linecap:round;stroke-linejoin:round;stroke-miterlimit:4;stroke-opacity:1;stroke-dasharray:none"
       d="m 630.16733,104.77093 c 0,0 -157.36135,152.61689 -136.8484,214.29027 -1.39814,-2.09722 52.09112,21.2617 47.57199,47.74161 0,0.69907 39.14801,41.94429 55.22665,104.86073 -0.69907,-1.39814 23.06936,30.06007 23.06936,30.06007 l -0.69907,-37.74986 7.48504,-30.6392 c 0,0 -162.67892,-99.02828 4.19443,-328.56362 z"
       id="LeftMiddle1"
       sodipodi:nodetypes="cccccccc" />
  </g>
  <g
     inkscape:groupmode="layer"
     id="layer8"
     inkscape:label="Kite Panels Right"
     style="display:inline">
    <path
       onclick="parent.cngColour(evt)"
       style="fill:#fcf8ff;fill-opacity:1;stroke:#f80000;stroke-width:1;stroke-linecap:round;stroke-linejoin:round;stroke-miterlimit:4;stroke-opacity:1;stroke-dasharray:none;display:inline"
       d="m 1101.7171,451.67661 c 0,0 -99.3906,-112.02959 -278.38553,-120.72007 -3.49536,0 -101.36537,-10.48607 -90.18023,67.11087 -1.39814,0.69907 71.3053,-70.60622 167.0781,-27.96286 10.48607,-6.29164 202.18676,72.48413 201.48766,81.57206 z"
       id="RightLowerLong"
       sodipodi:nodetypes="ccccc" />
    <path
       onclick="parent.cngColour(evt)"
       style="fill:#fcf8ff;fill-opacity:1;stroke:#f80000;stroke-width:1;stroke-linecap:round;stroke-linejoin:round;stroke-miterlimit:4;stroke-opacity:1;stroke-dasharray:none;display:inline"
       d="m 1103.6096,407.73447 c 0,0 -117.28897,-68.19887 -8.2338,38.75908 13.2824,10.48607 71.3053,41.24521 71.3053,41.24521 0,0 67.0241,44.60169 68.6581,45.94852 9.7279,8.01858 -110.0087,-111.15237 -110.0087,-111.15237 l -21.7209,-14.80044 z"
       id="RightTip"
       sodipodi:nodetypes="cccscc" />
    <path
       onclick="parent.cngColour(evt)"
       style="fill:#fcf8ff;fill-opacity:1;stroke:#f80000;stroke-width:1;stroke-linecap:round;stroke-linejoin:round;stroke-miterlimit:4;stroke-opacity:1;stroke-dasharray:none;display:inline"
       d="M 1103.5393,407.61453 971.53473,291.10947 715.67456,94.67037 632.48504,38.74465 l 10e-6,11.88421 c 0,0 173.36973,118.14309 301.99889,239.08246 0,0 35.80772,44.35165 -36.35172,46.83779 -0.69907,-0.69907 -72.90819,-5.38782 -72.90819,-5.38782 0,0 157.10443,2.84347 269.89737,114.90819 -6.2214,-15.59887 -87.4748,-84.88324 8.4179,-38.45495 z"
       id="RightMiddle4"
       sodipodi:nodetypes="cccccccccc" />
    <path
       onclick="parent.cngColour(evt)"
       style="fill:#fcf8ff;fill-opacity:1;stroke:#f80000;stroke-width:1;stroke-linecap:round;stroke-linejoin:round;stroke-miterlimit:4;stroke-opacity:1;stroke-dasharray:none;display:inline"
       d="m 727.55877,402.96091 c 0,0 -3.32059,-6.29165 -6.81594,-34.95358 -12.09264,8.23428 -38.60916,48.88533 -54.00328,104.16166 0.69907,-1.39814 59.42108,-69.20808 60.81922,-69.20808 z"
       id="RightLowerSmall"
       sodipodi:nodetypes="cccc" />
    <path
       onclick="parent.cngColour(evt)"
       style="fill:#fcf8ff;fill-opacity:1;stroke:#f80000;stroke-width:1;stroke-linecap:round;stroke-linejoin:round;stroke-miterlimit:4;stroke-opacity:1;stroke-dasharray:none;display:inline"
       d="m 635.9804,52.72608 123.03659,89.48115 104.86073,80.39323 67.80994,63.61551 c 0,0 46.13872,56.62479 -33.55544,50.33314 0.69907,-0.69907 -75.15019,-4.8935 -75.15019,-4.8935 l -29.01146,0 c 0,0 -70.60623,3.49536 -60.81923,65.01366 -0.69907,1.39814 -5.76734,4.01965 -5.76734,4.01965 0,0 -6.46641,-17.30202 -6.46641,-32.6816 -0.5243,0.52432 0,-0.34952 0,-0.34952 0,0 -10.13654,-22.89459 52.7799,-52.7799 -1.39815,3.49536 44.91535,-17.47679 27.96286,-62.91644 0,-0.69907 -38.44893,-58.02294 -38.44893,-58.02294 0,0 -46.13872,-66.41179 -132.12452,-137.71709 -0.69907,1.39815 0,-7.34025 0,-7.34025 l 4.8935,3.8449 z"
       id="RightMiddle3"
       sodipodi:nodetypes="ccccccccccccccccc" />
    <path
       onclick="parent.cngColour(evt)"
       style="fill:#fcf8ff;fill-opacity:1;stroke:#f80000;stroke-width:1;stroke-linecap:round;stroke-linejoin:round;stroke-miterlimit:4;stroke-opacity:1;stroke-dasharray:none;display:inline"
       d="m 631.0869,56.92051 0,49.63407 c 0,0 154.36031,144.43279 138.45129,213.01207 -0.69907,-1.39815 68.35394,-9.58225 22.33516,-85.08198 1.39814,1.39815 -72.00437,-109.05515 -160.78645,-177.56416 z"
       id="RightMiddle2"
       sodipodi:nodetypes="ccccc" />
    <path
       onclick="parent.cngColour(evt)"
       style="fill:#fcf8ff;fill-opacity:1;stroke:#f80000;stroke-width:1;stroke-linecap:round;stroke-linejoin:round;stroke-miterlimit:4;stroke-opacity:1;stroke-dasharray:none;display:inline"
       d="m 631.0869,104.08299 -0.61425,331.88935 c 0,0 172.21147,-94.15535 0.61425,-331.88935 z"
       id="RightCenter"
       sodipodi:nodetypes="ccc" />
    <path
       onclick="parent.cngColour(evt)"
       style="fill:#fcf8ff;fill-opacity:1;stroke:#f80000;stroke-width:1;stroke-linecap:round;stroke-linejoin:round;stroke-miterlimit:4;stroke-opacity:1;stroke-dasharray:none;display:inline"
       d="m 631.99072,104.57731 c 0,0 157.36135,152.61689 136.8484,214.29027 1.39814,-2.09722 -52.09112,21.2617 -47.57199,47.74161 0,0.69907 -39.14801,41.94429 -55.22665,104.86073 0.69907,-1.39814 -23.06936,30.06007 -23.06936,30.06007 l 0.69907,-37.74986 -7.48504,-30.6392 c 0,0 162.67892,-99.02828 -4.19443,-328.56362 z"
       id="RightMiddle1"
       sodipodi:nodetypes="cccccccc" />
  </g>
  <g
     inkscape:groupmode="layer"
     id="layer6"
     inkscape:label="Frame"
     style="display:inline">
    <path
       style="fill:none;stroke:#000000;stroke-width:10;stroke-linecap:round;stroke-linejoin:round;stroke-miterlimit:4;stroke-opacity:1;stroke-dasharray:none;display:inline"
       d="m 23.577996,533.8809 0,0 c 0,0 204.827954,-207.62424 351.632974,-312.48497 1.39815,1.39815 243.97596,-182.457663 251.66575,-181.05952 4.19443,1.398143 4.19443,1.398143 4.19443,1.398143"
       id="path2348" />
    <path
       style="fill:none;stroke:#000000;stroke-width:4;stroke-linecap:round;stroke-linejoin:round;stroke-miterlimit:4;stroke-opacity:1;stroke-dasharray:none;display:inline"
       d="m 30.858276,530.62543 -5.183065,3.95455 c 0,0 197.307789,-147.5332 383.395319,-175.87646 -1.19339,4.44886 63.97533,-23.23898 138.47186,54.51303 7.04039,2.59153 70.2464,88.50706 70.2464,88.50706 l 11.18514,15.37958 2.09722,9.08793"
       id="path3235"
       sodipodi:nodetypes="ccccccc" />
    <path
       style="fill:#000000;fill-opacity:1;stroke:#000000;stroke-width:2;stroke-linecap:round;stroke-linejoin:round;stroke-miterlimit:4;stroke-opacity:1;stroke-dasharray:none"
       d="m 632.1625,349.81699 -6.42614,6.42613 -1.97727,85.51705 -3.95455,23.72728 10e-6,36.57955 11.36932,17.30113 0.49431,-10.38068 0.49432,-159.17046 z"
       id="path5026"
       sodipodi:nodetypes="cccccccc" />
    <path
       style="fill:#000000;fill-opacity:1;stroke:#000000;stroke-width:2;stroke-linecap:round;stroke-linejoin:round;stroke-miterlimit:4;stroke-opacity:1;stroke-dasharray:none"
       d="m 609.39993,50.12341 c 4.8935,0 45.43965,0 45.43965,0 l -16.77772,-13.282358 -6.29164,0 -18.87493,11.884218 0,2.79628 -3.49536,-1.39814 z"
       id="path6798" />
    <path
       style="fill:none;stroke:#000000;stroke-width:10;stroke-linecap:round;stroke-linejoin:round;stroke-miterlimit:4;stroke-opacity:1;stroke-dasharray:none;display:inline"
       d="m 1239.6129,533.88487 0,0 c 0,0 -204.8279,-207.62424 -351.63297,-312.48497 -1.39815,1.39815 -243.97596,-182.457661 -251.66575,-181.059521 -4.19443,1.39814 -4.19443,1.39814 -4.19443,1.39814"
       id="path6809" />
    <path
       style="fill:none;stroke:#000000;stroke-width:4;stroke-linecap:round;stroke-linejoin:round;stroke-miterlimit:4;stroke-opacity:1;stroke-dasharray:none;display:inline"
       d="m 1234.3099,531.12372 3.2058,3.46023 c 0,0 -197.3078,-147.5332 -383.39533,-175.87646 1.19339,4.44886 -63.97533,-23.23898 -138.47186,54.51303 -7.04039,2.59153 -70.2464,88.50706 -70.2464,88.50706 l -11.18514,15.37958 -2.09722,9.08793"
       id="path6811"
       sodipodi:nodetypes="ccccccc" />
    <path
       style="fill:#000000;fill-opacity:1;stroke:#000000;stroke-width:2;stroke-linecap:round;stroke-linejoin:round;stroke-miterlimit:4;stroke-opacity:1;stroke-dasharray:none;display:inline"
       d="m 632.58195,349.83718 6.42614,6.42613 1.97727,85.51705 3.95455,23.72728 -1e-5,36.57955 -11.36932,17.30113 -0.49431,-10.38068 -0.49432,-159.17046 z"
       id="path6813"
       sodipodi:nodetypes="cccccccc" />
  </g>
  <g
     inkscape:groupmode="layer"
     id="layer7"
     inkscape:label="Frame spreaders"
     style="display:inline">
    <path
       style="fill:#00000f;fill-opacity:1;stroke:#000000;stroke-width:3;stroke-linecap:round;stroke-linejoin:round;stroke-miterlimit:4;stroke-opacity:1;stroke-dasharray:none"
       d="m 196.24866,371.69632 873.83944,-1e-5"
       id="path2877"
       sodipodi:nodetypes="cc" />
    <path
       style="fill:#00000f;fill-opacity:1;stroke:#000000;stroke-width:3;stroke-linecap:round;stroke-linejoin:round;stroke-miterlimit:4;stroke-opacity:1;stroke-dasharray:none"
       d="m 478.21437,149.80107 311.78589,0.69907"
       id="path3764"
       sodipodi:nodetypes="cc" />
  </g>
  <g
     inkscape:groupmode="layer"
     id="layer10"
     inkscape:label="Vents"
     style="display:inline">
    <g
       style="display:inline;enable-background:new"
       id="g3242"
       transform="matrix(1.1253071,0,0,1.142634,-95.857652,-115.64005)">
      <g
         style="display:inline"
         inkscape:label="Vents"
         id="layer9">
        <path
           sodipodi:nodetypes="ccccc"
           id="path3373"
           d="m 531.42206,249.02385 c -33.24855,17.28172 -85.54685,60.59394 -86.04135,89.35679 0.86443,12.91125 2.73705,17.42955 15.32386,24.71592 -9.73431,-11.34501 6.75157,-21.25357 12.35795,-37.56819 8.55926,-33.24959 34.53641,-54.70283 58.35954,-76.50452 z"
           style="fill:#000000;fill-opacity:1;fill-rule:evenodd;stroke:#000000;stroke-width:1px;stroke-linecap:butt;stroke-linejoin:miter;stroke-opacity:1" />
        <path
           sodipodi:nodetypes="cssccsc"
           id="path3409"
           d="m 591.69889,227.65337 c -2.93914,1.59413 -8.38537,4.59304 -13.97392,9.52283 -11.52077,10.16274 -26.48615,26.82739 -41.23769,44.36776 -28.86632,34.32361 -53.05298,74.00819 -27.45432,84.75325 -5.29234,-7.21812 8.12415,-19.63638 12.96707,-28.9052 9.7175,-40.43158 36.76549,-74.48703 62.97745,-100.56545 2.82716,-2.81276 4.75779,-5.86582 6.72141,-9.17319 z"
           style="fill:#000000;fill-opacity:1;fill-rule:evenodd;stroke:#000000;stroke-width:1px;stroke-linecap:butt;stroke-linejoin:miter;stroke-opacity:1" />
        <path
           sodipodi:nodetypes="csssccssc"
           id="path3411"
           d="m 595.15912,262.25564 c -3.14037,4.27111 -6.89381,8.3829 -10.41692,13.01172 -14.25211,18.72511 -30.10531,40.54088 -38.70297,63.24473 -5.20967,13.75722 -4.27717,28.88481 3.29494,44.28544 2.2104,4.49564 6.76266,7.91674 11.717,11.44107 -6.45132,-9.22727 -1.57898,-18.45455 0.98863,-27.68182 -3.22424,-38.19004 12.36259,-65.6158 28.05722,-92.72934 1.64274,-2.83794 3.20593,-5.72985 4.39692,-8.62852 0.40304,-0.98093 0.14443,-1.96263 0.66518,-2.94328 z"
           style="fill:#000000;fill-opacity:1;fill-rule:evenodd;stroke:#000000;stroke-width:1px;stroke-linecap:butt;stroke-linejoin:miter;stroke-opacity:1" />
        <path
           sodipodi:nodetypes="ccscccssc"
           id="path3413"
           d="m 623.33526,275.60223 c -7.12427,16.66325 -14.39862,33.53311 -19.34134,54.46644 0.0129,3.83141 -2.15513,8.43317 -3.19284,14.62021 -3.38198,20.16392 -8.21021,48.75827 0.54829,51.74786 5.12124,2.30472 11.10313,12.3813 21.49157,23.50641 -3.0488,-10.40555 -12.84648,-22.83576 -3.95454,-29.65909 -5.85406,-22.01582 -7.38307,-41.63961 -5.58343,-60.26677 1.44444,-14.95059 5.28193,-29.25916 8.87623,-43.64718 0.88689,-3.55021 0.45023,-7.16625 1.15606,-10.76788 z"
           style="fill:#000000;fill-opacity:1;fill-rule:evenodd;stroke:#000000;stroke-width:1px;stroke-linecap:butt;stroke-linejoin:miter;stroke-opacity:1" />
        <path
           sodipodi:nodetypes="ccccc"
           id="path3415"
           d="m 761.25004,249.15621 c 33.24855,17.28172 85.02255,59.7201 85.51705,88.48295 -0.86443,12.91125 -2.73705,17.42955 -15.32386,24.71592 9.73431,-11.34501 -6.75157,-21.25357 -12.35795,-37.56819 -8.55926,-33.24959 -34.01211,-53.82899 -57.83524,-75.63068 z"
           style="fill:#000000;fill-opacity:1;fill-rule:evenodd;stroke:#000000;stroke-width:1px;stroke-linecap:butt;stroke-linejoin:miter;stroke-opacity:1" />
        <path
           sodipodi:nodetypes="cccc"
           id="path3417"
           d="m 700.44891,226.91189 c 21.30562,14.6752 129.55414,111.5557 83.53977,137.42046 2.2838,-8.0777 -9.02603,-18.42101 -13.84091,-27.68182 -11.55367,-42.08077 -38.13093,-77.00601 -69.69886,-109.73864 z"
           style="fill:#000000;fill-opacity:1;fill-rule:evenodd;stroke:#000000;stroke-width:1px;stroke-linecap:butt;stroke-linejoin:miter;stroke-opacity:1" />
        <path
           sodipodi:nodetypes="cccc"
           id="path3419"
           d="m 696.98868,261.51416 c 25.71188,32.26169 79.60107,94.74068 34.10795,131.98296 5.05421,-9.22727 1.5778,-18.45455 -0.98863,-27.68182 1.74066,-43.89593 -17.18677,-73.02893 -33.11932,-104.30114 z"
           style="fill:#000000;fill-opacity:1;fill-rule:evenodd;stroke:#000000;stroke-width:1px;stroke-linecap:butt;stroke-linejoin:miter;stroke-opacity:1" />
        <path
           sodipodi:nodetypes="ccccc"
           id="path3421"
           d="m 668.81254,274.86075 c 13.13401,30.71967 27.12859,62.84059 26.19887,119.13069 -0.86489,-4.5874 -12.74053,6.22317 -25.70455,25.21023 3.0488,-10.40555 12.84648,-22.83576 3.95454,-29.65909 12.47937,-43.81221 1.86077,-78.38522 -4.44886,-114.68183 z"
           style="fill:#000000;fill-opacity:1;fill-rule:evenodd;stroke:#000000;stroke-width:1px;stroke-linecap:butt;stroke-linejoin:miter;stroke-opacity:1" />
      </g>
      <g
         style="display:inline"
         inkscape:label="Holes"
         id="g3253">
        <path
           sodipodi:open="true"
           inkscape:transform-center-x="3.8658282"
           inkscape:transform-center-y="4.9703676"
           transform="matrix(1.0587955,0.3482197,-0.3630374,1.1038503,92.385781,-206.01315)"
           sodipodi:end="6.1747465"
           sodipodi:start="0"
           d="m 470.09662,344.31247 c 0,6.55211 -3.54102,11.86364 -7.90909,11.86364 -4.36807,0 -7.90909,-5.31153 -7.90909,-11.86364 0,-6.55211 3.54102,-11.86364 7.90909,-11.86364 4.03678,0 7.42575,4.56008 7.86264,10.57968"
           sodipodi:ry="11.863637"
           sodipodi:rx="7.9090915"
           sodipodi:cy="344.31247"
           sodipodi:cx="462.18753"
           id="path3424"
           style="fill:#d6e1ff;fill-opacity:1;stroke:none"
           sodipodi:type="arc" />
        <path
           inkscape:transform-center-y="5.4375003"
           inkscape:transform-center-x="5.4375003"
           transform="matrix(0.7888003,0.6146496,-0.6146496,0.7888003,293.53539,-223.78993)"
           sodipodi:open="true"
           sodipodi:end="6.1747465"
           sodipodi:start="0"
           d="m 472.56822,311.93463 c 0,6.68861 -3.09839,12.1108 -6.92045,12.1108 -3.82207,0 -6.92046,-5.42219 -6.92046,-12.1108 0,-6.68861 3.09839,-12.11079 6.92046,-12.11079 3.53217,0 6.49753,4.65508 6.8798,10.80008"
           sodipodi:ry="12.110796"
           sodipodi:rx="6.920455"
           sodipodi:cy="311.93463"
           sodipodi:cx="465.64777"
           id="path3428"
           style="fill:#d6e1ff;fill-opacity:1;stroke:none"
           sodipodi:type="arc" />
        <path
           inkscape:transform-center-y="4.9579606"
           inkscape:transform-center-x="5.459856"
           transform="matrix(0.2767023,0.4056519,-0.6806759,0.6999148,570.61791,-120.73486)"
           sodipodi:open="true"
           sodipodi:end="6.1747465"
           sodipodi:start="0"
           d="m 472.56822,311.93463 c 0,6.68861 -3.09839,12.1108 -6.92045,12.1108 -3.82207,0 -6.92046,-5.42219 -6.92046,-12.1108 0,-6.68861 3.09839,-12.11079 6.92046,-12.11079 3.53217,0 6.49753,4.65508 6.8798,10.80008"
           sodipodi:ry="12.110796"
           sodipodi:rx="6.920455"
           sodipodi:cy="311.93463"
           sodipodi:cx="465.64777"
           id="path3430"
           style="fill:#d6e1ff;fill-opacity:1;stroke:none"
           sodipodi:type="arc" />
        <path
           inkscape:transform-center-y="3.8572663"
           inkscape:transform-center-x="4.9515174"
           transform="matrix(0.0261096,0.4628383,-0.6451644,0.5629264,697.91384,-124.1757)"
           sodipodi:open="true"
           sodipodi:end="6.1747465"
           sodipodi:start="0"
           d="m 472.56822,311.93463 c 0,6.68861 -3.09839,12.1108 -6.92045,12.1108 -3.82207,0 -6.92046,-5.42219 -6.92046,-12.1108 0,-6.68861 3.09839,-12.11079 6.92046,-12.11079 3.53217,0 6.49753,4.65508 6.8798,10.80008"
           sodipodi:ry="12.110796"
           sodipodi:rx="6.920455"
           sodipodi:cy="311.93463"
           sodipodi:cx="465.64777"
           id="path3432"
           style="fill:#d6e1ff;fill-opacity:1;stroke:none"
           sodipodi:type="arc" />
        <path
           sodipodi:nodetypes="cccc"
           id="path3434"
           d="m 502.19732,339.9784 c 9.6627,-17.40792 21.29423,-6.32651 13.87089,4.33406 l -3.28546,4.50884 c -10.27689,16.79133 -14.45604,-2.7506 -10.58543,-8.8429 z"
           style="fill:#d6e1ff;fill-opacity:1;fill-rule:evenodd;stroke:none" />
        <path
           sodipodi:nodetypes="csccc"
           id="path3436"
           d="m 513.30857,314.87828 c 0.48372,-0.99966 1.65442,-2.80752 2.21166,-3.61079 7.73867,-11.15535 18.29355,-3.79696 11.33968,6.57669 l -4.62363,6.45612 c -11.09586,12.65245 -18.43653,-0.86406 -8.92771,-9.42202 z"
           style="fill:#d6e1ff;fill-opacity:1;fill-rule:evenodd;stroke:none" />
        <path
           sodipodi:nodetypes="cccc"
           id="path3438"
           d="m 537.69541,295.48787 c -10.15963,14.0806 -16.44816,6.8582 -8.79293,-2.76884 l 4.82633,-5.14736 c 14.73192,-17.25328 11.12895,1.81176 3.9666,7.9162 z"
           style="fill:#d6e1ff;fill-opacity:1;fill-rule:evenodd;stroke:none" />
        <path
           sodipodi:nodetypes="cccc"
           id="path3440"
           d="m 552.72235,272.9189 c -7.22138,10.11305 -10.91011,3.29753 -4.48496,-4.1615 l 4.29384,-4.12628 c 10.96922,-10.78456 5.76754,4.12052 0.19112,8.28778 z"
           style="fill:#d6e1ff;fill-opacity:1;fill-rule:evenodd;stroke:none" />
        <path
           sodipodi:nodetypes="cccc"
           id="path3442"
           d="m 577.43307,241.21467 c -5.37333,3.60122 -10.47194,8.57602 -15.37957,14.50574 -0.1887,1.70336 0.77369,2.25562 2.44675,2.09721 4.31252,-5.53527 10.96228,-12.47288 12.93282,-16.60295 z"
           style="fill:#d6e1ff;fill-opacity:1;fill-rule:evenodd;stroke:#c3eeef;stroke-width:1px;stroke-linecap:butt;stroke-linejoin:round;stroke-opacity:1" />
        <path
           sodipodi:nodetypes="cccccc"
           id="path3444"
           d="m 544.57671,353.41565 c 5.15527,-6.30519 10.16454,-6.62404 14.85527,6.11688 l -0.34954,6.29164 -2.09721,9.61223 c -2.4074,3.31089 -4.8264,6.40149 -7.68979,1.04861 -2.5215,-7.68979 -5.34878,-15.37957 -4.71873,-23.06936 z"
           style="fill:#d6e1ff;fill-opacity:1;fill-rule:evenodd;stroke:#c3eeef;stroke-width:1px;stroke-linecap:butt;stroke-linejoin:miter;stroke-opacity:1" />
        <path
           sodipodi:nodetypes="ccccc"
           id="path3446"
           d="m 555.76185,321.78266 -7.16548,13.45713 c 0.12759,8.08691 4.01206,9.73345 10.66084,6.64118 l 4.3692,-12.23375 c -0.94336,-4.80313 -2.3331,-9.02596 -7.86456,-7.86456 z"
           style="fill:#d6e1ff;fill-opacity:1;fill-rule:evenodd;stroke:#c3eeef;stroke-width:1px;stroke-linecap:butt;stroke-linejoin:miter;stroke-opacity:1" />
        <path
           inkscape:transform-center-x="0.89761977"
           sodipodi:nodetypes="cccc"
           id="path3450"
           d="m 568.96812,310.73886 c -5.14635,11.68145 -10.28209,5.59906 -5.38117,-3.24671 l 3.45484,-5.04814 c 8.77496,-13.14098 6.66246,2.93712 1.92633,8.29485 z"
           style="fill:#d6e1ff;fill-opacity:1;fill-rule:evenodd;stroke:none" />
        <path
           sodipodi:nodetypes="cccc"
           id="path3452"
           d="m 588.24908,274.13603 c -4.89014,4.23414 -9.33888,9.7977 -13.48075,16.28548 0.022,1.71364 1.04497,2.14347 2.68589,1.7807 3.59974,-6.0232 9.34671,-13.72529 10.79486,-18.06618 z"
           style="fill:#d6e1ff;fill-opacity:1;fill-rule:evenodd;stroke:#c3eeef;stroke-width:1px;stroke-linecap:butt;stroke-linejoin:round;stroke-opacity:1" />
        <path
           inkscape:transform-center-y="6.2443783"
           inkscape:transform-center-x="9.3489186"
           sodipodi:nodetypes="cccc"
           id="path3454"
           d="m 617.53404,296.19251 c -3.06027,4.70525 -5.21885,10.25094 -6.75054,16.38094 0.64698,1.25957 1.7679,1.24773 3.18144,0.4509 1.19065,-5.61192 3.79093,-13.15661 3.5691,-16.83184 z"
           style="fill:#d6e1ff;fill-opacity:1;fill-rule:evenodd;stroke:#c3eeef;stroke-width:0.9023279px;stroke-linecap:butt;stroke-linejoin:round;stroke-opacity:1" />
        <path
           inkscape:transform-center-y="0.16221276"
           inkscape:transform-center-x="0.92601709"
           sodipodi:nodetypes="cccc"
           id="path3456"
           d="m 610.95155,331.9417 c -1.57697,13.3878 -8.2424,8.78776 -6.08663,-1.65468 l 1.86055,-6.15892 c 4.63398,-15.96625 7.22515,0.95254 4.22608,7.8136 z"
           style="fill:#d6e1ff;fill-opacity:1;fill-rule:evenodd;stroke:none" />
        <path
           sodipodi:nodetypes="csccc"
           id="path3458"
           d="m 612.15601,357.02212 c 0.12821,1.10156 0.13475,3.25535 0.10941,4.23259 -0.35184,13.57126 -12.04559,13.17476 -11.9031,0.68699 l 0.31397,-7.93348 c 2.16485,-16.65936 14.46996,-9.349 11.47972,3.0139 z"
           style="fill:#d6e1ff;fill-opacity:1;fill-rule:evenodd;stroke:none" />
        <path
           sodipodi:nodetypes="ccsccc"
           id="path3460"
           d="m 606.79407,375.4364 c -8.07238,3.03771 -6.98595,9.12835 -6.99071,14.85527 0,0 8.03932,9.08793 9.2627,8.91316 1.22337,-0.17476 2.44675,-0.5243 2.44675,-0.5243 1.5661,-2.71055 3.27817,-5.17779 3.49535,-10.13654 -0.10132,-9.11527 -3.47053,-12.34834 -8.21409,-13.10759 z"
           style="fill:#d6e1ff;fill-opacity:1;fill-rule:evenodd;stroke:#c3eeef;stroke-width:1px;stroke-linecap:butt;stroke-linejoin:miter;stroke-opacity:1" />
        <path
           sodipodi:open="true"
           inkscape:transform-center-x="-3.8658317"
           inkscape:transform-center-y="4.9703676"
           transform="matrix(-1.0587955,0.3482197,0.3630374,1.1038503,1198.772,-208.28638)"
           sodipodi:end="6.1747465"
           sodipodi:start="0"
           d="m 470.09662,344.31247 c 0,6.55211 -3.54102,11.86364 -7.90909,11.86364 -4.36807,0 -7.90909,-5.31153 -7.90909,-11.86364 0,-6.55211 3.54102,-11.86364 7.90909,-11.86364 4.03678,0 7.42575,4.56008 7.86264,10.57968"
           sodipodi:ry="11.863637"
           sodipodi:rx="7.9090915"
           sodipodi:cy="344.31247"
           sodipodi:cx="462.18753"
           id="path3462"
           style="fill:#d6e1ff;fill-opacity:1;stroke:none;display:inline;enable-background:new"
           sodipodi:type="arc" />
        <path
           inkscape:transform-center-y="5.4375003"
           inkscape:transform-center-x="-5.4374988"
           transform="matrix(-0.7888003,0.6146496,0.6146496,0.7888003,997.62237,-226.06316)"
           sodipodi:open="true"
           sodipodi:end="6.1747465"
           sodipodi:start="0"
           d="m 472.56822,311.93463 c 0,6.68861 -3.09839,12.1108 -6.92045,12.1108 -3.82207,0 -6.92046,-5.42219 -6.92046,-12.1108 0,-6.68861 3.09839,-12.11079 6.92046,-12.11079 3.53217,0 6.49753,4.65508 6.8798,10.80008"
           sodipodi:ry="12.110796"
           sodipodi:rx="6.920455"
           sodipodi:cy="311.93463"
           sodipodi:cx="465.64777"
           id="path3464"
           style="fill:#d6e1ff;fill-opacity:1;stroke:none;display:inline;enable-background:new"
           sodipodi:type="arc" />
        <path
           inkscape:transform-center-y="4.9579606"
           inkscape:transform-center-x="-5.4598545"
           transform="matrix(-0.2767023,0.4056519,0.6806759,0.6999148,720.53985,-123.00809)"
           sodipodi:open="true"
           sodipodi:end="6.1747465"
           sodipodi:start="0"
           d="m 472.56822,311.93463 c 0,6.68861 -3.09839,12.1108 -6.92045,12.1108 -3.82207,0 -6.92046,-5.42219 -6.92046,-12.1108 0,-6.68861 3.09839,-12.11079 6.92046,-12.11079 3.53217,0 6.49753,4.65508 6.8798,10.80008"
           sodipodi:ry="12.110796"
           sodipodi:rx="6.920455"
           sodipodi:cy="311.93463"
           sodipodi:cx="465.64777"
           id="path3466"
           style="fill:#d6e1ff;fill-opacity:1;stroke:none;display:inline;enable-background:new"
           sodipodi:type="arc" />
        <path
           inkscape:transform-center-y="3.8572663"
           inkscape:transform-center-x="-4.9515159"
           transform="matrix(-0.0261096,0.4628383,0.6451644,0.5629264,593.24392,-126.44893)"
           sodipodi:open="true"
           sodipodi:end="6.1747465"
           sodipodi:start="0"
           d="m 472.56822,311.93463 c 0,6.68861 -3.09839,12.1108 -6.92045,12.1108 -3.82207,0 -6.92046,-5.42219 -6.92046,-12.1108 0,-6.68861 3.09839,-12.11079 6.92046,-12.11079 3.53217,0 6.49753,4.65508 6.8798,10.80008"
           sodipodi:ry="12.110796"
           sodipodi:rx="6.920455"
           sodipodi:cy="311.93463"
           sodipodi:cx="465.64777"
           id="path3468"
           style="fill:#d6e1ff;fill-opacity:1;stroke:none;display:inline;enable-background:new"
           sodipodi:type="arc" />
        <path
           sodipodi:nodetypes="cccc"
           id="path3470"
           d="m 788.96044,337.70517 c -9.6627,-17.40792 -21.29423,-6.32651 -13.87089,4.33406 l 3.28546,4.50884 c 10.27689,16.79133 14.45604,-2.7506 10.58543,-8.8429 z"
           style="fill:#d6e1ff;fill-opacity:1;fill-rule:evenodd;stroke:none;display:inline;enable-background:new" />
        <path
           sodipodi:nodetypes="csccc"
           id="path3472"
           d="m 777.84919,312.60505 c -0.48372,-0.99966 -1.65442,-2.80752 -2.21166,-3.61079 -7.73867,-11.15535 -18.29355,-3.79696 -11.33968,6.57669 l 4.62363,6.45612 c 11.09586,12.65245 18.43653,-0.86406 8.92771,-9.42202 z"
           style="fill:#d6e1ff;fill-opacity:1;fill-rule:evenodd;stroke:none;display:inline;enable-background:new" />
        <path
           sodipodi:nodetypes="cccc"
           id="path3474"
           d="m 753.46235,293.21464 c 10.15963,14.0806 16.44816,6.8582 8.79293,-2.76884 l -4.82633,-5.14736 c -14.73192,-17.25328 -11.12895,1.81176 -3.9666,7.9162 z"
           style="fill:#d6e1ff;fill-opacity:1;fill-rule:evenodd;stroke:none;display:inline;enable-background:new" />
        <path
           sodipodi:nodetypes="cccc"
           id="path3476"
           d="m 738.43541,270.64567 c 7.22138,10.11305 10.91011,3.29753 4.48496,-4.1615 l -4.29384,-4.12628 c -10.96922,-10.78456 -5.76754,4.12052 -0.19112,8.28778 z"
           style="fill:#d6e1ff;fill-opacity:1;fill-rule:evenodd;stroke:none;display:inline;enable-background:new" />
        <path
           sodipodi:nodetypes="cccc"
           id="path3478"
           d="m 713.72469,238.94144 c 5.37333,3.60122 10.47194,8.57602 15.37957,14.50574 0.1887,1.70336 -0.77369,2.25562 -2.44675,2.09721 -4.31252,-5.53527 -10.96228,-12.47288 -12.93282,-16.60295 z"
           style="fill:#d6e1ff;fill-opacity:1;fill-rule:evenodd;stroke:#c3eeef;stroke-width:1px;stroke-linecap:butt;stroke-linejoin:round;stroke-opacity:1;display:inline;enable-background:new" />
        <path
           sodipodi:nodetypes="cccccc"
           id="path3480"
           d="m 746.58105,351.14242 c -5.15527,-6.30519 -10.16454,-6.62404 -14.85527,6.11688 l 0.34954,6.29164 2.09721,9.61223 c 2.4074,3.31089 4.8264,6.40149 7.68979,1.04861 2.5215,-7.68979 5.34878,-15.37957 4.71873,-23.06936 z"
           style="fill:#d6e1ff;fill-opacity:1;fill-rule:evenodd;stroke:#c3eeef;stroke-width:1px;stroke-linecap:butt;stroke-linejoin:miter;stroke-opacity:1;display:inline;enable-background:new" />
        <path
           sodipodi:nodetypes="ccccc"
           id="path3482"
           d="m 735.39591,319.50943 7.16548,13.45713 c -0.12759,8.08691 -4.01206,9.73345 -10.66084,6.64118 l -4.3692,-12.23375 c 0.94336,-4.80313 2.3331,-9.02596 7.86456,-7.86456 z"
           style="fill:#d6e1ff;fill-opacity:1;fill-rule:evenodd;stroke:#c3eeef;stroke-width:1px;stroke-linecap:butt;stroke-linejoin:miter;stroke-opacity:1;display:inline;enable-background:new" />
        <path
           inkscape:transform-center-x="-0.89761825"
           sodipodi:nodetypes="cccc"
           id="path3484"
           d="m 722.18964,308.46563 c 5.14635,11.68145 10.28209,5.59906 5.38117,-3.24671 l -3.45484,-5.04814 c -8.77496,-13.14098 -6.66246,2.93712 -1.92633,8.29485 z"
           style="fill:#d6e1ff;fill-opacity:1;fill-rule:evenodd;stroke:none;display:inline;enable-background:new" />
        <path
           sodipodi:nodetypes="cccc"
           id="path3486"
           d="m 702.90868,271.8628 c 4.89014,4.23414 9.33888,9.7977 13.48075,16.28548 -0.022,1.71364 -1.04497,2.14347 -2.68589,1.7807 -3.59974,-6.0232 -9.34671,-13.72529 -10.79486,-18.06618 z"
           style="fill:#d6e1ff;fill-opacity:1;fill-rule:evenodd;stroke:#c3eeef;stroke-width:1px;stroke-linecap:butt;stroke-linejoin:round;stroke-opacity:1;display:inline;enable-background:new" />
        <path
           inkscape:transform-center-y="6.2443783"
           inkscape:transform-center-x="-9.3489171"
           sodipodi:nodetypes="cccc"
           id="path3488"
           d="m 673.62372,293.91928 c 3.06027,4.70525 5.21885,10.25094 6.75054,16.38094 -0.64698,1.25957 -1.7679,1.24773 -3.18144,0.4509 -1.19065,-5.61192 -3.79093,-13.15661 -3.5691,-16.83184 z"
           style="fill:#d6e1ff;fill-opacity:1;fill-rule:evenodd;stroke:#c3eeef;stroke-width:0.9023279px;stroke-linecap:butt;stroke-linejoin:round;stroke-opacity:1;display:inline;enable-background:new" />
        <path
           inkscape:transform-center-y="0.16221276"
           inkscape:transform-center-x="-0.92601557"
           sodipodi:nodetypes="cccc"
           id="path3490"
           d="m 680.20621,329.66847 c 1.57697,13.3878 8.2424,8.78776 6.08663,-1.65468 l -1.86055,-6.15892 c -4.63398,-15.96625 -7.22515,0.95254 -4.22608,7.8136 z"
           style="fill:#d6e1ff;fill-opacity:1;fill-rule:evenodd;stroke:none;display:inline;enable-background:new" />
        <path
           sodipodi:nodetypes="csccc"
           id="path3492"
           d="m 679.00175,354.74889 c -0.12821,1.10156 -0.13475,3.25535 -0.10941,4.23259 0.35184,13.57126 12.04559,13.17476 11.9031,0.68699 l -0.31397,-7.93348 c -2.16485,-16.65936 -14.46996,-9.349 -11.47972,3.0139 z"
           style="fill:#d6e1ff;fill-opacity:1;fill-rule:evenodd;stroke:none;display:inline;enable-background:new" />
        <path
           sodipodi:nodetypes="ccsccc"
           id="path3494"
           d="m 684.36369,373.16317 c 8.07238,3.03771 6.98595,9.12835 6.99071,14.85527 0,0 -8.03932,9.08793 -9.2627,8.91316 -1.22337,-0.17476 -2.44675,-0.5243 -2.44675,-0.5243 -1.5661,-2.71055 -3.27817,-5.17779 -3.49535,-10.13654 0.10132,-9.11527 3.47053,-12.34834 8.21409,-13.10759 z"
           style="fill:#d6e1ff;fill-opacity:1;fill-rule:evenodd;stroke:#c3eeef;stroke-width:1px;stroke-linecap:butt;stroke-linejoin:miter;stroke-opacity:1;display:inline;enable-background:new" />
      </g>
    </g>
  </g>
</svg>
